Coordinates
nRows=197
nColumns=2
inDegrees=yes
endheader
time	ankle_angle_r	
3.1873	  0.076294	
3.24979	 -0.076294	
3.31229	 -0.030518	
3.37478	 -0.015259	
3.43728	 -0.030518	
3.49978	  0.045776	
3.56227	  0.061035	
3.62477	  0.076294	
3.68726	 -0.076294	
3.74976	 -0.030518	
3.81226	 -0.030518	
3.87475	 -0.076294	
3.93725	  0.106812	
3.99974	  0.061035	
4.06224	  0.045776	
4.12474	  0.061035	
4.18723	 -0.061035	
4.24973	 -0.045776	
4.31222	  0.045776	
4.37472	 -0.061035	
4.43722	  0.030518	
4.49971	  0.015259	
4.56221	  0.045776	
4.6247	  0.061035	
4.6872	 -0.045776	
4.7497	  0.000000	
4.81219	 -0.061035	
4.87469	 -0.045776	
4.93718	  0.122070	
4.99968	  0.076294	
5.06218	  0.122070	
5.12467	  0.061035	
5.18717	 -0.045776	
5.24966	  0.000000	
5.31216	 -0.061035	
5.37466	  0.030518	
5.43715	  0.030518	
5.49965	  0.015259	
5.56214	  0.045776	
5.62464	 -0.106812	
5.68714	 -0.045776	
5.74963	  0.015259	
5.81213	  0.000000	
5.87462	  0.122070	
5.93712	  0.061035	
5.99962	  0.045776	
6.06211	  0.061035	
6.12461	 -0.137329	
6.1871	  0.000000	
6.2496	 -0.061035	
6.3121	 -0.045776	
6.37459	  0.167847	
6.43709	  0.015259	
6.49958	  0.061035	
6.56208	  0.106812	
6.62458	 -0.015259	
6.68707	 -0.015259	
6.74957	  0.030518	
6.81206	  0.000000	
6.87456	  0.045776	
6.93706	 -0.030518	
6.99955	  0.091553	
7.06205	  0.015259	
7.12454	 -0.030518	
7.18704	  0.030518	
7.24954	 -0.061035	
7.31203	  0.091553	
7.37453	  0.106812	
7.43702	  0.106812	
7.49952	  0.183105	
7.56202	 -0.167847	
7.62451	  0.000000	
7.68701	  0.000000	
7.7495	 -0.091553	
7.812	  0.106812	
7.8745	  0.061035	
7.93699	  0.137329	
7.99949	  0.015259	
8.06198	 -0.061035	
8.12448	  0.045776	
8.18698	  0.030518	
8.24947	  0.015259	
8.31197	  0.045776	
8.37446	 -0.076294	
8.43696	  0.030518	
8.49946	 -0.015259	
8.56195	  0.030518	
8.62445	  0.015259	
8.68694	 -0.045776	
8.74944	  0.076294	
8.81194	  0.076294	
8.87443	  0.045776	
8.93693	  0.061035	
8.99942	 -0.030518	
9.06192	  0.015259	
9.12442	 -0.015259	
9.18691	 -0.091553	
9.24941	  0.030518	
9.3119	 -0.030518	
9.3744	  0.030518	
9.4369	  0.045776	
9.49939	 -0.015259	
9.56189	 -0.045776	
9.62438	 -0.030518	
9.68688	  0.061035	
9.74938	  0.061035	
9.81187	  0.045776	
9.87437	  0.091553	
9.93686	 -0.030518	
9.99936	  0.061035	
10.0619	  0.015259	
10.1244	 -0.061035	
10.1868	  0.000000	
10.2493	  0.076294	
10.3118	  0.030518	
10.3743	 -0.015259	
10.4368	 -0.061035	
10.4993	  0.030518	
10.5618	  0.000000	
10.6243	  0.045776	
10.6868	  0.137329	
10.7493	  0.015259	
10.8118	  0.137329	
10.8743	 -0.030518	
10.9368	 -0.015259	
10.9993	  0.000000	
11.0618	 -0.015259	
11.1243	  0.106812	
11.1868	  0.030518	
11.2493	  0.000000	
11.3118	  0.045776	
11.3743	  0.000000	
11.4368	  0.045776	
11.4993	  0.015259	
11.5618	 -0.045776	
11.6243	  0.091553	
11.6868	  0.000000	
11.7492	  0.045776	
11.8117	 -0.030518	
11.8742	 -0.045776	
11.9367	  0.000000	
11.9992	 -0.030518	
12.0617	 -0.015259	
12.1242	  0.030518	
12.1867	  0.076294	
12.2492	  0.076294	
12.3117	 -0.015259	
12.3742	 -0.045776	
12.4367	 -0.061035	
12.4992	 -0.061035	
12.5617	  0.076294	
12.6242	  0.030518	
12.6867	  0.076294	
12.7492	  0.106812	
12.8117	 -0.045776	
12.8742	 -0.030518	
12.9367	  0.000000	
12.9992	  0.030518	
13.0617	  0.106812	
13.1242	  0.000000	
13.1867	  0.076294	
13.2492	 -0.045776	
13.3116	 -0.061035	
13.3741	 -0.015259	
13.4366	 -0.061035	
13.4991	  0.106812	
13.5616	  0.030518	
13.6241	  0.061035	
13.6866	  0.091553	
13.7491	  0.030518	
13.8116	  0.045776	
13.8741	  0.045776	
13.9366	 -0.045776	
13.9991	  0.076294	
14.0616	  0.000000	
14.1241	 -0.045776	
14.1866	 -0.030518	
14.2491	 -0.061035	
14.3116	 -0.015259	
14.3741	 -0.122070	
14.4366	  0.076294	
14.4991	  0.061035	
14.5616	  0.015259	
14.6241	  0.137329	
14.6866	 -0.015259	
14.7491	 -0.015259	
14.8116	 -0.045776	
14.874	 -0.061035	
14.9365	  0.122070	
14.999	  0.091553	
15.0615	  0.000000	
15.124	  0.091553	
15.1865	 -0.015259	
15.249	 -0.015259	
15.3115	 -0.030518	
15.374	  0.045776	
15.4365	  0.076294	
